<?xml version="1.0" encoding="UTF-8"?>
<svg id="Capa_2" data-name="Capa 2" xmlns="http://www.w3.org/2000/svg" xmlns:xlink="http://www.w3.org/1999/xlink" viewBox="0 0 1024 224.24">
  <defs>
    <style>
      .cls-1 {
        stroke-width: 5.36px;
      }

      .cls-1, .cls-2, .cls-3 {
        stroke: #fff;
        stroke-miterlimit: 10;
      }

      .cls-1, .cls-2, .cls-4 {
        fill: #009161;
      }

      .cls-5 {
        clip-path: url(#clippath-4);
      }

      .cls-2, .cls-3 {
        stroke-width: 1.44px;
      }

      .cls-3 {
        fill: none;
      }

      .cls-6 {
        clip-path: url(#clippath-3);
      }

      .cls-7 {
        opacity: .1;
      }

      .cls-8 {
        clip-path: url(#clippath-2);
      }

      .cls-9 {
        clip-path: url(#clippath);
      }
    </style>
    <clipPath id="clippath">
      <path class="cls-4" d="M1243.43,99.73c0-51.98,42.13-94.11,94.12-94.11,14.45,0,28.14,3.26,40.37,9.08.93.46,1.86.92,2.79,1.38,293.1,145.02,607.22,158.75,850.92,9.74-270.24,173.44-599.86,232.78-913.05,166.12-42.89-8.77-75.16-46.73-75.16-92.21Z"/>
    </clipPath>
    <clipPath id="clippath-2">
      <path class="cls-4" d="M1006.1,124.51c0,51.98-42.13,94.11-94.12,94.11-14.45,0-28.14-3.26-40.37-9.08-.93-.46-1.86-.92-2.79-1.38C575.72,63.13,261.6,49.4,17.9,198.41,288.14,24.97,617.75-34.37,930.95,32.29c42.89,8.77,75.16,46.73,75.16,92.21Z"/>
    </clipPath>
    <clipPath id="clippath-3">
      <path class="cls-4" d="M17.89,198.41C426.93-64.1,971.97-65.23,1390.26,236.32c264,190.32,429.03,466.24,485.55,762.16-111.56-47.3-229.57-93.99-352.81-139.18-26.65-49.7-56.53-99.09-89.33-147.57C1062.94,166.7,436.53-57.56,17.89,198.41ZM-578.37,181.05c-32.8-48.49-62.67-97.88-89.33-147.57-123.24-45.19-241.25-91.88-352.81-139.18,56.52,295.92,221.55,571.84,485.55,762.16,418.29,301.55,963.33,300.42,1372.36,37.91-418.64,255.97-1045.05,31.7-1415.78-513.32Z"/>
    </clipPath>
    <clipPath id="clippath-4">
      <rect class="cls-2" x="-230.48" y="-63.01" width="1316.2" height="1018.8"/>
    </clipPath>
  </defs>
  <path class="cls-4" d="M837.19,561.75c-408.9,262.42-953.75,263.55-1371.89-37.9C-798.61,333.59-963.59,57.77-1020.08-238.04c111.52,47.29,229.49,93.96,352.69,139.13,26.64,49.68,56.51,99.05,89.3,147.52C-207.5,593.44,418.7,817.63,837.19,561.75Z"/>
  <g>
    <path class="cls-4" d="M1243.43,99.73c0-51.98,42.13-94.11,94.12-94.11,14.45,0,28.14,3.26,40.37,9.08.93.46,1.86.92,2.79,1.38,293.1,145.02,607.22,158.75,850.92,9.74-270.24,173.44-599.86,232.78-913.05,166.12-42.89-8.77-75.16-46.73-75.16-92.21Z"/>
    <g class="cls-9">
      <path class="cls-4" d="M2231.64,25.83c-409.04,262.51-954.07,263.64-1372.36-37.91-264-190.32-429.03-466.24-485.55-762.16,111.56,47.3,229.57,93.99,352.81,139.18,26.65,49.7,56.53,99.09,89.33,147.57C1186.59,57.53,1813,281.8,2231.64,25.83ZM2827.91,43.18c32.8,48.49,62.67,97.88,89.33,147.57,123.24,45.19,241.25,91.88,352.81,139.18-56.52-295.92-221.55-571.84-485.55-762.16-418.29-301.55-963.33-300.42-1372.36-37.91,418.64-255.97,1045.05-31.7,1415.78,513.32Z"/>
    </g>
  </g>
  <g>
    <path class="cls-4" d="M1006.1,124.51c0,51.98-42.13,94.11-94.12,94.11-14.45,0-28.14-3.26-40.37-9.08-.93-.46-1.86-.92-2.79-1.38C575.72,63.13,261.6,49.4,17.9,198.41,288.14,24.97,617.75-34.37,930.95,32.29c42.89,8.77,75.16,46.73,75.16,92.21Z"/>
    <g class="cls-8">
      <g>
        <path class="cls-4" d="M17.89,198.41C426.93-64.1,971.97-65.23,1390.26,236.32c264,190.32,429.03,466.24,485.55,762.16-111.56-47.3-229.57-93.99-352.81-139.18-26.65-49.7-56.53-99.09-89.33-147.57C1062.94,166.7,436.53-57.56,17.89,198.41ZM-578.37,181.05c-32.8-48.49-62.67-97.88-89.33-147.57-123.24-45.19-241.25-91.88-352.81-139.18,56.52,295.92,221.55,571.84,485.55,762.16,418.29,301.55,963.33,300.42,1372.36,37.91-418.64,255.97-1045.05,31.7-1415.78-513.32Z"/>
        <g class="cls-6">
          <g class="cls-7">
            <rect class="cls-4" x="-230.48" y="-63.01" width="1316.2" height="1018.8"/>
            <g class="cls-5">
              <path class="cls-1" d="M322.56-35.72c12.14,19.3,20.39,40.35,24.75,62.03-21.67-4.36-42.72-12.61-62.02-24.74"/>
              <path class="cls-1" d="M374.48-44.24c12.14,19.3,20.39,40.35,24.75,62.03-21.67-4.36-42.72-12.61-62.02-24.74"/>
              <path class="cls-1" d="M426.42-52.8c12.14,19.3,20.39,40.35,24.75,62.03-21.67-4.36-42.72-12.61-62.02-24.74"/>
              <path class="cls-1" d="M365.95,7.67c12.14,19.3,20.39,40.35,24.75,62.03-21.67-4.36-42.72-12.61-62.02-24.74"/>
              <path class="cls-1" d="M478.34-61.33c12.14,19.3,20.39,40.35,24.75,62.03-21.67-4.36-42.72-12.61-62.02-24.74"/>
              <path class="cls-1" d="M417.87-.85c12.14,19.3,20.39,40.35,24.75,62.03-21.67-4.36-42.72-12.61-62.02-24.74"/>
              <path class="cls-1" d="M469.81-9.41c12.14,19.3,20.39,40.35,24.75,62.03-21.67-4.36-42.72-12.61-62.02-24.74"/>
              <path class="cls-1" d="M409.34,51.06c12.14,19.3,20.39,40.35,24.75,62.03-21.67-4.36-42.72-12.61-62.02-24.74"/>
              <path class="cls-1" d="M565.12,25.46c12.14,19.3,20.39,40.35,24.75,62.03-21.67-4.36-42.72-12.61-62.02-24.74"/>
              <path class="cls-1" d="M625.62-35.04c12.14,19.3,20.39,40.35,24.75,62.03-21.67-4.36-42.72-12.61-62.02-24.74"/>
              <path class="cls-1" d="M504.65,85.93c12.14,19.3,20.39,40.35,24.75,62.03-21.67-4.36-42.72-12.61-62.02-24.74"/>
              <path class="cls-1" d="M617.04,16.93c12.14,19.3,20.39,40.35,24.75,62.03-21.67-4.36-42.72-12.61-62.02-24.74"/>
              <path class="cls-1" d="M556.59,77.37c12.14,19.3,20.39,40.35,24.75,62.03-21.67-4.36-42.72-12.61-62.02-24.74"/>
              <path class="cls-1" d="M496.12,137.85c12.14,19.3,20.39,40.35,24.75,62.03-21.67-4.36-42.72-12.61-62.02-24.74"/>
              <path class="cls-1" d="M677.54-43.57c12.14,19.3,20.39,40.35,24.75,62.03-21.67-4.36-42.72-12.61-62.02-24.74"/>
              <path class="cls-1" d="M521.73-17.94c12.14,19.3,20.39,40.35,24.75,62.03-21.67-4.36-42.72-12.61-62.02-24.74"/>
              <path class="cls-1" d="M461.26,42.54c12.14,19.3,20.39,40.35,24.75,62.03-21.67-4.36-42.72-12.61-62.02-24.74"/>
              <path class="cls-1" d="M573.65-26.46c12.14,19.3,20.39,40.35,24.75,62.03-21.67-4.36-42.72-12.61-62.02-24.74"/>
              <path class="cls-1" d="M513.2,33.98c12.14,19.3,20.39,40.35,24.75,62.03-21.67-4.36-42.72-12.61-62.02-24.74"/>
              <path class="cls-1" d="M452.73,94.45c12.14,19.3,20.39,40.35,24.75,62.03-21.67-4.36-42.72-12.61-62.02-24.74"/>
              <path class="cls-1" d="M608.51,68.85c12.14,19.3,20.39,40.35,24.75,62.03-21.67-4.36-42.72-12.61-62.02-24.74"/>
              <path class="cls-1" d="M669.01,8.35c12.14,19.3,20.39,40.35,24.75,62.03-21.67-4.36-42.72-12.61-62.02-24.74"/>
              <path class="cls-1" d="M548.04,129.32c12.14,19.3,20.39,40.35,24.75,62.03-21.67-4.36-42.72-12.61-62.02-24.74"/>
              <path class="cls-1" d="M660.43,60.32c12.14,19.3,20.39,40.35,24.75,62.03-21.67-4.36-42.72-12.61-62.02-24.74"/>
              <path class="cls-1" d="M599.98,120.76c12.14,19.3,20.39,40.35,24.75,62.03-21.67-4.36-42.72-12.61-62.02-24.74"/>
              <path class="cls-1" d="M539.51,181.24c12.14,19.3,20.39,40.35,24.75,62.03-21.67-4.36-42.72-12.61-62.02-24.74"/>
              <path class="cls-1" d="M720.93-.18c12.14,19.3,20.39,40.35,24.75,62.03-21.67-4.36-42.72-12.61-62.02-24.74"/>
              <path class="cls-1" d="M651.9,112.24c12.14,19.3,20.39,40.35,24.75,62.03-21.67-4.36-42.72-12.61-62.02-24.74"/>
              <path class="cls-1" d="M712.4,51.74c12.14,19.3,20.39,40.35,24.75,62.03-21.67-4.36-42.72-12.61-62.02-24.74"/>
              <path class="cls-1" d="M591.43,172.71c12.14,19.3,20.39,40.35,24.75,62.03-21.67-4.36-42.72-12.61-62.02-24.74"/>
              <path class="cls-1" d="M703.82,103.71c12.14,19.3,20.39,40.35,24.75,62.03-21.67-4.36-42.72-12.61-62.02-24.74"/>
              <path class="cls-1" d="M643.37,164.15c12.14,19.3,20.39,40.35,24.75,62.03-21.67-4.36-42.72-12.61-62.02-24.74"/>
              <path class="cls-1" d="M582.9,224.63c12.14,19.3,20.39,40.35,24.75,62.03-21.67-4.36-42.72-12.61-62.02-24.74"/>
              <path class="cls-1" d="M764.32,43.21c12.14,19.3,20.39,40.35,24.75,62.03-21.67-4.36-42.72-12.61-62.02-24.74"/>
              <path class="cls-1" d="M677.54-43.57c12.14,19.3,20.39,40.35,24.75,62.03-21.67-4.36-42.72-12.61-62.02-24.74"/>
              <path class="cls-1" d="M729.45-52.1c12.14,19.3,20.39,40.35,24.75,62.03-21.67-4.36-42.72-12.61-62.02-24.74"/>
              <path class="cls-1" d="M781.4-60.65c12.14,19.3,20.39,40.35,24.75,62.03-21.67-4.36-42.72-12.61-62.02-24.74"/>
              <path class="cls-1" d="M720.93-.18c12.14,19.3,20.39,40.35,24.75,62.03-21.67-4.36-42.72-12.61-62.02-24.74"/>
              <path class="cls-1" d="M772.84-8.71c12.14,19.3,20.39,40.35,24.75,62.03-21.67-4.36-42.72-12.61-62.02-24.74"/>
              <path class="cls-1" d="M824.79-17.26c12.14,19.3,20.39,40.35,24.75,62.03-21.67-4.36-42.72-12.61-62.02-24.74"/>
              <path class="cls-1" d="M764.32,43.21c12.14,19.3,20.39,40.35,24.75,62.03-21.67-4.36-42.72-12.61-62.02-24.74"/>
              <path class="cls-1" d="M10.95,15.55c12.14,19.3,20.39,40.35,24.75,62.03-21.67-4.36-42.72-12.61-62.02-24.74"/>
              <path class="cls-1" d="M2.42,67.47c12.14,19.3,20.39,40.35,24.75,62.03-21.67-4.36-42.72-12.61-62.02-24.74"/>
              <path class="cls-1" d="M-6.16,119.44c12.14,19.3,20.39,40.35,24.75,62.03-21.67-4.36-42.72-12.61-62.02-24.74"/>
              <path class="cls-1" d="M54.34,58.95c12.14,19.3,20.39,40.35,24.75,62.03-21.67-4.36-42.72-12.61-62.02-24.74"/>
              <path class="cls-1" d="M19.47-36.36C31.61-17.06,39.87,3.99,44.23,25.67,22.55,21.31,1.51,13.06-17.79.92"/>
              <path class="cls-1" d="M71.42-44.92c12.14,19.3,20.39,40.35,24.75,62.03-21.67-4.36-42.72-12.61-62.02-24.74"/>
              <path class="cls-1" d="M10.95,15.55c12.14,19.3,20.39,40.35,24.75,62.03-21.67-4.36-42.72-12.61-62.02-24.74"/>
              <path class="cls-1" d="M123.34-53.44c12.14,19.3,20.39,40.35,24.75,62.03-21.67-4.36-42.72-12.61-62.02-24.74"/>
              <path class="cls-1" d="M62.87,7.03c12.14,19.3,20.39,40.35,24.75,62.03-21.67-4.36-42.72-12.61-62.02-24.74"/>
              <path class="cls-1" d="M175.25-61.97c12.14,19.3,20.39,40.35,24.75,62.03-21.67-4.36-42.72-12.61-62.02-24.74"/>
              <path class="cls-1" d="M114.81-1.53c12.14,19.3,20.39,40.35,24.75,62.03-21.67-4.36-42.72-12.61-62.02-24.74"/>
              <path class="cls-1" d="M54.34,58.95c12.14,19.3,20.39,40.35,24.75,62.03-21.67-4.36-42.72-12.61-62.02-24.74"/>
              <path class="cls-1" d="M28.7,214.75c12.14,19.3,20.39,40.35,24.75,62.03-21.67-4.36-42.72-12.61-62.02-24.74"/>
              <path class="cls-1" d="M89.2,154.25c12.14,19.3,20.39,40.35,24.75,62.03-21.67-4.36-42.72-12.61-62.02-24.74"/>
              <path class="cls-1" d="M80.62,206.22c12.14,19.3,20.39,40.35,24.75,62.03-21.67-4.36-42.72-12.61-62.02-24.74"/>
              <path class="cls-1" d="M141.12,145.73c12.14,19.3,20.39,40.35,24.75,62.03-21.67-4.36-42.72-12.61-62.02-24.74"/>
              <path class="cls-1" d="M-14.69,171.36c12.14,19.3,20.39,40.35,24.75,62.03-21.67-4.36-42.72-12.61-62.02-24.74"/>
              <path class="cls-1" d="M45.81,110.86c12.14,19.3,20.39,40.35,24.75,62.03-21.67-4.36-42.72-12.61-62.02-24.74"/>
              <path class="cls-1" d="M37.23,162.83c12.14,19.3,20.39,40.35,24.75,62.03-21.67-4.36-42.72-12.61-62.02-24.74"/>
              <path class="cls-1" d="M-23.22,223.28c12.14,19.3,20.39,40.35,24.75,62.03-21.67-4.36-42.72-12.61-62.02-24.74"/>
              <path class="cls-1" d="M97.73,102.34c12.14,19.3,20.39,40.35,24.75,62.03-21.67-4.36-42.72-12.61-62.02-24.74"/>
              <path class="cls-1" d="M132.59,197.64c12.14,19.3,20.39,40.35,24.75,62.03-21.67-4.36-42.72-12.61-62.02-24.74"/>
              <path class="cls-1" d="M184.51,189.12c12.14,19.3,20.39,40.35,24.75,62.03-21.67-4.36-42.72-12.61-62.02-24.74"/>
              <path class="cls-1" d="M210.12,33.34c12.14,19.3,20.39,40.35,24.75,62.03-21.67-4.36-42.72-12.61-62.02-24.74"/>
              <path class="cls-1" d="M270.62-27.16c12.14,19.3,20.39,40.35,24.75,62.03-21.67-4.36-42.72-12.61-62.02-24.74"/>
              <path class="cls-1" d="M149.65,93.81c12.14,19.3,20.39,40.35,24.75,62.03-21.67-4.36-42.72-12.61-62.02-24.74"/>
              <path class="cls-1" d="M262.03,24.81c12.14,19.3,20.39,40.35,24.75,62.03-21.67-4.36-42.72-12.61-62.02-24.74"/>
              <path class="cls-1" d="M201.59,85.25c12.14,19.3,20.39,40.35,24.75,62.03-21.67-4.36-42.72-12.61-62.02-24.74"/>
              <path class="cls-1" d="M141.12,145.73c12.14,19.3,20.39,40.35,24.75,62.03-21.67-4.36-42.72-12.61-62.02-24.74"/>
              <path class="cls-1" d="M166.73-10.05c12.14,19.3,20.39,40.35,24.75,62.03-21.67-4.36-42.72-12.61-62.02-24.74"/>
              <path class="cls-1" d="M106.26,50.42c12.14,19.3,20.39,40.35,24.75,62.03-21.67-4.36-42.72-12.61-62.02-24.74"/>
              <path class="cls-1" d="M218.64-18.58c12.14,19.3,20.39,40.35,24.75,62.03-21.67-4.36-42.72-12.61-62.02-24.74"/>
              <path class="cls-1" d="M158.2,41.86c12.14,19.3,20.39,40.35,24.75,62.03-21.67-4.36-42.72-12.61-62.02-24.74"/>
              <path class="cls-1" d="M253.51,76.73c12.14,19.3,20.39,40.35,24.75,62.03-21.67-4.36-42.72-12.61-62.02-24.74"/>
              <path class="cls-1" d="M314.01,16.23c12.14,19.3,20.39,40.35,24.75,62.03-21.67-4.36-42.72-12.61-62.02-24.74"/>
              <path class="cls-1" d="M193.04,137.2c12.14,19.3,20.39,40.35,24.75,62.03-21.67-4.36-42.72-12.61-62.02-24.74"/>
              <path class="cls-1" d="M305.42,68.2c12.14,19.3,20.39,40.35,24.75,62.03-21.67-4.36-42.72-12.61-62.02-24.74"/>
              <path class="cls-1" d="M244.98,128.64c12.14,19.3,20.39,40.35,24.75,62.03-21.67-4.36-42.72-12.61-62.02-24.74"/>
              <path class="cls-1" d="M184.51,189.12c12.14,19.3,20.39,40.35,24.75,62.03-21.67-4.36-42.72-12.61-62.02-24.74"/>
              <path class="cls-1" d="M296.9,120.12c12.14,19.3,20.39,40.35,24.75,62.03-21.67-4.36-42.72-12.61-62.02-24.74"/>
              <path class="cls-1" d="M357.4,59.62c12.14,19.3,20.39,40.35,24.75,62.03-21.67-4.36-42.72-12.61-62.02-24.74"/>
              <path class="cls-1" d="M236.43,180.59c12.14,19.3,20.39,40.35,24.75,62.03-21.67-4.36-42.72-12.61-62.02-24.74"/>
              <path class="cls-1" d="M348.82,111.59c12.14,19.3,20.39,40.35,24.75,62.03-21.67-4.36-42.72-12.61-62.02-24.74"/>
              <path class="cls-1" d="M288.37,172.04c12.14,19.3,20.39,40.35,24.75,62.03-21.67-4.36-42.72-12.61-62.02-24.74"/>
              <path class="cls-1" d="M383.68,206.9c12.14,19.3,20.39,40.35,24.75,62.03-21.67-4.36-42.72-12.61-62.02-24.74"/>
              <path class="cls-1" d="M444.18,146.4c12.14,19.3,20.39,40.35,24.75,62.03-21.67-4.36-42.72-12.61-62.02-24.74"/>
              <path class="cls-1" d="M435.6,198.37c12.14,19.3,20.39,40.35,24.75,62.03-21.67-4.36-42.72-12.61-62.02-24.74"/>
              <path class="cls-1" d="M340.29,163.51c12.14,19.3,20.39,40.35,24.75,62.03-21.67-4.36-42.72-12.61-62.02-24.74"/>
              <path class="cls-1" d="M400.79,103.01c12.14,19.3,20.39,40.35,24.75,62.03-21.67-4.36-42.72-12.61-62.02-24.74"/>
              <path class="cls-1" d="M279.82,223.98c12.14,19.3,20.39,40.35,24.75,62.03-21.67-4.36-42.72-12.61-62.02-24.74"/>
              <path class="cls-1" d="M392.21,154.98c12.14,19.3,20.39,40.35,24.75,62.03-21.67-4.36-42.72-12.61-62.02-24.74"/>
              <path class="cls-1" d="M331.76,215.43c12.14,19.3,20.39,40.35,24.75,62.03-21.67-4.36-42.72-12.61-62.02-24.74"/>
              <path class="cls-1" d="M487.57,189.79c12.14,19.3,20.39,40.35,24.75,62.03-21.67-4.36-42.72-12.61-62.02-24.74"/>
              <path class="cls-1" d="M738.7,199.04c12.14,19.3,20.39,40.35,24.75,62.03-21.67-4.36-42.72-12.61-62.02-24.74"/>
              <path class="cls-1" d="M799.2,138.54c12.14,19.3,20.39,40.35,24.75,62.03-21.67-4.36-42.72-12.61-62.02-24.74"/>
              <path class="cls-1" d="M790.62,190.51c12.14,19.3,20.39,40.35,24.75,62.03-21.67-4.36-42.72-12.61-62.02-24.74"/>
              <path class="cls-1" d="M851.12,130.01c12.14,19.3,20.39,40.35,24.75,62.03-21.67-4.36-42.72-12.61-62.02-24.74"/>
              <path class="cls-1" d="M695.31,155.65c12.14,19.3,20.39,40.35,24.75,62.03-21.67-4.36-42.72-12.61-62.02-24.74"/>
              <path class="cls-1" d="M755.81,95.15c12.14,19.3,20.39,40.35,24.75,62.03-21.67-4.36-42.72-12.61-62.02-24.74"/>
              <path class="cls-1" d="M634.84,216.12c12.14,19.3,20.39,40.35,24.75,62.03-21.67-4.36-42.72-12.61-62.02-24.74"/>
              <path class="cls-1" d="M747.23,147.12c12.14,19.3,20.39,40.35,24.75,62.03-21.67-4.36-42.72-12.61-62.02-24.74"/>
              <path class="cls-1" d="M686.78,207.56c12.14,19.3,20.39,40.35,24.75,62.03-21.67-4.36-42.72-12.61-62.02-24.74"/>
              <path class="cls-1" d="M807.73,86.62c12.14,19.3,20.39,40.35,24.75,62.03-21.67-4.36-42.72-12.61-62.02-24.74"/>
              <path class="cls-1" d="M842.59,181.93c12.14,19.3,20.39,40.35,24.75,62.03-21.67-4.36-42.72-12.61-62.02-24.74"/>
              <path class="cls-1" d="M894.51,173.4c12.14,19.3,20.39,40.35,24.75,62.03-21.67-4.36-42.72-12.61-62.02-24.74"/>
              <path class="cls-1" d="M885.98,225.32c12.14,19.3,20.39,40.35,24.75,62.03-21.67-4.36-42.72-12.61-62.02-24.74"/>
              <path class="cls-1" d="M937.9,216.79c12.14,19.3,20.39,40.35,24.75,62.03-21.67-4.36-42.72-12.61-62.02-24.74"/>
              <path class="cls-1" d="M920.12,17.62c12.14,19.3,20.39,40.35,24.75,62.03-21.67-4.36-42.72-12.61-62.02-24.74"/>
              <path class="cls-1" d="M980.62-42.88c12.14,19.3,20.39,40.35,24.75,62.03-21.67-4.36-42.72-12.61-62.02-24.74"/>
              <path class="cls-1" d="M859.65,78.09c12.14,19.3,20.39,40.35,24.75,62.03-21.67-4.36-42.72-12.61-62.02-24.74"/>
              <path class="cls-1" d="M972.03,9.1c12.14,19.3,20.39,40.35,24.75,62.03-21.67-4.36-42.72-12.61-62.02-24.74"/>
              <path class="cls-1" d="M911.59,69.54c12.14,19.3,20.39,40.35,24.75,62.03-21.67-4.36-42.72-12.61-62.02-24.74"/>
              <path class="cls-1" d="M851.12,130.01c12.14,19.3,20.39,40.35,24.75,62.03-21.67-4.36-42.72-12.61-62.02-24.74"/>
              <path class="cls-1" d="M1032.53-51.4c12.14,19.3,20.39,40.35,24.75,62.03-21.67-4.36-42.72-12.61-62.02-24.74"/>
              <path class="cls-1" d="M876.73-25.77c12.14,19.3,20.39,40.35,24.75,62.03-21.67-4.36-42.72-12.61-62.02-24.74"/>
              <path class="cls-1" d="M816.25,34.7c12.14,19.3,20.39,40.35,24.75,62.03-21.67-4.36-42.72-12.61-62.02-24.74"/>
              <path class="cls-1" d="M928.64-34.29c12.14,19.3,20.39,40.35,24.75,62.03-21.67-4.36-42.72-12.61-62.02-24.74"/>
              <path class="cls-1" d="M868.2,26.15c12.14,19.3,20.39,40.35,24.75,62.03-21.67-4.36-42.72-12.61-62.02-24.74"/>
              <path class="cls-1" d="M963.51,61.01c12.14,19.3,20.39,40.35,24.75,62.03-21.67-4.36-42.72-12.61-62.02-24.74"/>
              <path class="cls-1" d="M1024.01.51c12.14,19.3,20.39,40.35,24.75,62.03-21.67-4.36-42.72-12.61-62.02-24.74"/>
              <path class="cls-1" d="M903.04,121.48c12.14,19.3,20.39,40.35,24.75,62.03-21.67-4.36-42.72-12.61-62.02-24.74"/>
              <path class="cls-1" d="M1015.42,52.49c12.14,19.3,20.39,40.35,24.75,62.03-21.67-4.36-42.72-12.61-62.02-24.74"/>
              <path class="cls-1" d="M954.98,112.93c12.14,19.3,20.39,40.35,24.75,62.03-21.67-4.36-42.72-12.61-62.02-24.74"/>
              <path class="cls-1" d="M894.51,173.4c12.14,19.3,20.39,40.35,24.75,62.03-21.67-4.36-42.72-12.61-62.02-24.74"/>
              <path class="cls-1" d="M1006.9,104.4c12.14,19.3,20.39,40.35,24.75,62.03-21.67-4.36-42.72-12.61-62.02-24.74"/>
              <path class="cls-1" d="M946.43,164.87c12.14,19.3,20.39,40.35,24.75,62.03-21.67-4.36-42.72-12.61-62.02-24.74"/>
              <path class="cls-1" d="M1058.81,95.88c12.14,19.3,20.39,40.35,24.75,62.03-21.67-4.36-42.72-12.61-62.02-24.74"/>
              <path class="cls-1" d="M998.37,156.32c12.14,19.3,20.39,40.35,24.75,62.03-21.67-4.36-42.72-12.61-62.02-24.74"/>
              <path class="cls-1" d="M937.9,216.79c12.14,19.3,20.39,40.35,24.75,62.03-21.67-4.36-42.72-12.61-62.02-24.74"/>
              <path class="cls-1" d="M1050.29,147.79c12.14,19.3,20.39,40.35,24.75,62.03-21.67-4.36-42.72-12.61-62.02-24.74"/>
              <path class="cls-1" d="M989.82,208.27c12.14,19.3,20.39,40.35,24.75,62.03-21.67-4.36-42.72-12.61-62.02-24.74"/>
              <path class="cls-1" d="M1041.76,199.71c12.14,19.3,20.39,40.35,24.75,62.03-21.67-4.36-42.72-12.61-62.02-24.74"/>
            </g>
            <rect class="cls-3" x="-230.48" y="-63.01" width="1316.2" height="1018.8"/>
          </g>
        </g>
      </g>
    </g>
  </g>
</svg>